<?xml version="1.0" encoding="UTF-8" standalone="no" ?>
<!DOCTYPE svg PUBLIC "-//W3C//DTD SVG 1.1//EN" "http://www.w3.org/Graphics/SVG/1.1/DTD/svg11.dtd">
<svg xmlns="http://www.w3.org/2000/svg" xmlns:xlink="http://www.w3.org/1999/xlink" version="1.1" width="1280" height="1024" viewBox="0 0 1280 1024" xml:space="preserve">
<desc>Created with Fabric.js 4.4.0</desc>
<defs>
</defs>
<g transform="matrix(1 0 0 1 640 512)" id="background-logo"  >
<rect style="stroke: none; stroke-width: 0; stroke-dasharray: none; stroke-linecap: butt; stroke-dashoffset: 0; stroke-linejoin: miter; stroke-miterlimit: 4; fill: rgb(255,255,255); fill-rule: nonzero; opacity: 1;"  paint-order="stroke"  x="-640" y="-512" rx="0" ry="0" width="1280" height="1024" />
</g>
<g transform="matrix(1.9211538461538462 0 0 1.9211538461538462 640 361.1997391002847)" id="logo-logo"  >
<g style=""  paint-order="stroke"   >
		<g transform="matrix(0.20938406679028826 0 0 -0.20938406679028826 -48.960799797740094 56.97260375750773)"  >
<linearGradient id="SVGID_142_5_5_5_5_5_404" gradientUnits="userSpaceOnUse" gradientTransform="matrix(0 -507.071 -323.125 0 524.732 614.735)"  x1="0" y1="0" x2="1" y2="0">
<stop offset="0%" style="stop-color:rgb(243,143,30);stop-opacity: 1"/>
<stop offset="100%" style="stop-color:rgb(238,41,34);stop-opacity: 1"/>
</linearGradient>
<path style="stroke: none; stroke-width: 1; stroke-dasharray: none; stroke-linecap: butt; stroke-dashoffset: 0; stroke-linejoin: miter; stroke-miterlimit: 4; fill: url(#SVGID_142_5_5_5_5_5_404); fill-rule: nonzero; opacity: 1;"  paint-order="stroke"  transform=" translate(-363.1675, -344.189515)" d="M 504.73 686.547 L 504.73 225.953 L 221.605 1.83203 L 221.605 462.422 L 504.73 686.547" stroke-linecap="round" />
</g>
		<g transform="matrix(0.20938406679028826 0 0 -0.20938406679028826 23.154213565836983 69.96324442183024)"  >
<linearGradient id="SVGID_143_6_6_6_6_6_405" gradientUnits="userSpaceOnUse" gradientTransform="matrix(971.957 0 0 -594.816 221.607 574.816)"  x1="0" y1="0" x2="1" y2="0">
<stop offset="0%" style="stop-color:rgb(169,209,28);stop-opacity: 1"/>
<stop offset="100%" style="stop-color:rgb(61,175,61);stop-opacity: 1"/>
</linearGradient>
<path style="stroke: none; stroke-width: 1; stroke-dasharray: none; stroke-linecap: butt; stroke-dashoffset: 0; stroke-linejoin: miter; stroke-miterlimit: 4; fill: url(#SVGID_143_6_6_6_6_6_405); fill-rule: nonzero; opacity: 1;"  paint-order="stroke"  transform=" translate(-707.5825, -277.408)" d="M 504.73 225.953 L 920.043 554.816 L 1193.56 554.816 L 495.129 1.83203 L 495.129 0 L 221.605 0 L 221.605 1.83203 L 504.73 225.953" stroke-linecap="round" />
</g>
		<g transform="matrix(0.20938406679028826 0 0 -0.20938406679028826 50.25247664819801 69.96324442183024)"  >
<linearGradient id="SVGID_144_7_7_7_7_7_406" gradientUnits="userSpaceOnUse" gradientTransform="matrix(-266.812 228.696 595.985 695.315 828.966 -312.489)"  x1="0" y1="0" x2="1" y2="0">
<stop offset="0%" style="stop-color:rgb(144,190,37);stop-opacity: 1"/>
<stop offset="100%" style="stop-color:rgb(46,163,64);stop-opacity: 1"/>
</linearGradient>
<path style="stroke: none; stroke-width: 1; stroke-dasharray: none; stroke-linecap: butt; stroke-dashoffset: 0; stroke-linejoin: miter; stroke-miterlimit: 4; fill: url(#SVGID_144_7_7_7_7_7_406); fill-rule: nonzero; opacity: 1;"  paint-order="stroke"  transform=" translate(-844.3444999999999, -277.408)" d="M 1193.56 554.816 L 1193.56 214.289 L 923.016 0 L 495.129 0 L 495.129 1.83203 L 1193.56 554.816" stroke-linecap="round" />
</g>
		<g transform="matrix(0.20938406679028826 0 0 -0.20938406679028826 0 -47.62517241506123)"  >
<linearGradient id="SVGID_145_8_8_8_8_8_407" gradientUnits="userSpaceOnUse" gradientTransform="matrix(1193.56 0 0 -813.678 -0.0000153 1246.5)"  x1="0" y1="0" x2="1" y2="0">
<stop offset="0%" style="stop-color:rgb(194,12,135);stop-opacity: 1"/>
<stop offset="29.954821%" style="stop-color:rgb(194,12,135);stop-opacity: 1"/>
<stop offset="100%" style="stop-color:rgb(92,34,114);stop-opacity: 1"/>
</linearGradient>
<path style="stroke: none; stroke-width: 1; stroke-dasharray: none; stroke-linecap: butt; stroke-dashoffset: 0; stroke-linejoin: miter; stroke-miterlimit: 4; fill: url(#SVGID_145_8_8_8_8_8_407); fill-rule: nonzero; opacity: 1;"  paint-order="stroke"  transform=" translate(-597, -839)" d="M 0 452 L 0 455 L 1 455 L 1 457 L 2 457 L 2 458 L 3 458 L 3 460 L 4 460 L 4 462 L 5 462 L 5 464 L 6 464 L 6 465 L 7 465 L 7 467 L 8 467 L 8 469 L 9 469 L 9 470 L 10 470 L 10 472 L 11 472 L 11 474 L 12 474 L 12 476 L 13 476 L 13 477 L 14 477 L 14 479 L 15 479 L 15 481 L 16 481 L 16 483 L 17 483 L 17 484 L 18 484 L 18 486 L 19 486 L 19 488 L 20 488 L 20 489 L 21 489 L 21 491 L 22 491 L 22 493 L 23 493 L 23 495 L 24 495 L 24 496 L 25 496 L 25 498 L 26 498 L 26 500 L 27 500 L 27 501 L 28 501 L 28 503 L 29 503 L 29 505 L 30 505 L 30 507 L 31 507 L 31 508 L 32 508 L 32 510 L 33 510 L 33 512 L 34 512 L 34 513 L 35 513 L 35 515 L 36 515 L 36 517 L 37 517 L 37 519 L 38 519 L 38 520 L 39 520 L 39 522 L 40 522 L 40 524 L 41 524 L 41 525 L 42 525 L 42 527 L 43 527 L 43 529 L 44 529 L 44 531 L 45 531 L 45 532 L 46 532 L 46 534 L 47 534 L 47 536 L 48 536 L 48 538 L 49 538 L 49 539 L 50 539 L 50 541 L 51 541 L 51 543 L 52 543 L 52 544 L 53 544 L 53 546 L 54 546 L 54 548 L 55 548 L 55 550 L 56 550 L 56 551 L 57 551 L 57 553 L 58 553 L 58 555 L 59 555 L 59 556 L 60 556 L 60 558 L 61 558 L 61 560 L 62 560 L 62 562 L 63 562 L 63 563 L 64 563 L 64 565 L 65 565 L 65 567 L 66 567 L 66 568 L 67 568 L 67 570 L 68 570 L 68 572 L 69 572 L 69 574 L 70 574 L 70 575 L 71 575 L 71 577 L 72 577 L 72 579 L 73 579 L 73 580 L 74 580 L 74 582 L 75 582 L 75 584 L 76 584 L 76 586 L 77 586 L 77 587 L 78 587 L 78 589 L 79 589 L 79 591 L 80 591 L 80 592 L 81 592 L 81 594 L 82 594 L 82 596 L 83 596 L 83 598 L 84 598 L 84 599 L 85 599 L 85 601 L 86 601 L 86 603 L 87 603 L 87 605 L 88 605 L 88 606 L 89 606 L 89 608 L 90 608 L 90 610 L 91 610 L 91 611 L 92 611 L 92 613 L 93 613 L 93 615 L 94 615 L 94 617 L 95 617 L 95 618 L 96 618 L 96 620 L 97 620 L 97 622 L 98 622 L 98 623 L 99 623 L 99 625 L 100 625 L 100 627 L 101 627 L 101 629 L 102 629 L 102 630 L 103 630 L 103 632 L 104 632 L 104 634 L 105 634 L 105 635 L 106 635 L 106 637 L 107 637 L 107 639 L 108 639 L 108 641 L 109 641 L 109 642 L 110 642 L 110 644 L 111 644 L 111 646 L 112 646 L 112 647 L 113 647 L 113 649 L 114 649 L 114 651 L 115 651 L 115 653 L 116 653 L 116 654 L 117 654 L 117 656 L 118 656 L 118 658 L 119 658 L 119 660 L 120 660 L 120 661 L 121 661 L 121 663 L 122 663 L 122 665 L 123 665 L 123 666 L 124 666 L 124 668 L 125 668 L 125 670 L 126 670 L 126 672 L 127 672 L 127 673 L 128 673 L 128 675 L 129 675 L 129 677 L 130 677 L 130 678 L 131 678 L 131 680 L 132 680 L 132 682 L 133 682 L 133 684 L 134 684 L 134 685 L 135 685 L 135 687 L 136 687 L 136 689 L 137 689 L 137 690 L 138 690 L 138 692 L 139 692 L 139 694 L 140 694 L 140 696 L 141 696 L 141 697 L 142 697 L 142 699 L 143 699 L 143 701 L 144 701 L 144 702 L 145 702 L 145 704 L 146 704 L 146 706 L 147 706 L 147 708 L 148 708 L 148 709 L 149 709 L 149 711 L 150 711 L 150 713 L 151 713 L 151 714 L 152 714 L 152 716 L 153 716 L 153 718 L 154 718 L 154 720 L 155 720 L 155 721 L 156 721 L 156 723 L 157 723 L 157 725 L 158 725 L 158 727 L 159 727 L 159 728 L 160 728 L 160 730 L 161 730 L 161 732 L 162 732 L 162 733 L 163 733 L 163 735 L 164 735 L 164 737 L 165 737 L 165 739 L 166 739 L 166 740 L 167 740 L 167 742 L 168 742 L 168 744 L 169 744 L 169 745 L 170 745 L 170 747 L 171 747 L 171 749 L 172 749 L 172 751 L 173 751 L 173 752 L 174 752 L 174 754 L 175 754 L 175 756 L 176 756 L 176 757 L 177 757 L 177 759 L 178 759 L 178 761 L 179 761 L 179 763 L 180 763 L 180 764 L 181 764 L 181 766 L 182 766 L 182 768 L 183 768 L 183 769 L 184 769 L 184 771 L 185 771 L 185 773 L 186 773 L 186 775 L 187 775 L 187 776 L 188 776 L 188 778 L 189 778 L 189 780 L 190 780 L 190 782 L 191 782 L 191 783 L 192 783 L 192 785 L 193 785 L 193 787 L 194 787 L 194 788 L 195 788 L 195 790 L 196 790 L 196 792 L 197 792 L 197 794 L 198 794 L 198 795 L 199 795 L 199 797 L 200 797 L 200 799 L 201 799 L 201 800 L 202 800 L 202 802 L 203 802 L 203 804 L 204 804 L 204 806 L 205 806 L 205 807 L 206 807 L 206 809 L 207 809 L 207 811 L 208 811 L 208 812 L 209 812 L 209 814 L 210 814 L 210 816 L 211 816 L 211 818 L 212 818 L 212 819 L 213 819 L 213 821 L 214 821 L 214 823 L 215 823 L 215 824 L 216 824 L 216 826 L 217 826 L 217 828 L 218 828 L 218 830 L 219 830 L 219 831 L 220 831 L 220 833 L 221 833 L 221 990 L 222 990 L 222 991 L 223 991 L 223 992 L 225 992 L 225 993 L 226 993 L 226 994 L 227 994 L 227 995 L 229 995 L 229 996 L 230 996 L 230 997 L 231 997 L 231 998 L 232 998 L 232 999 L 234 999 L 234 1000 L 235 1000 L 235 1001 L 236 1001 L 236 1002 L 237 1002 L 237 1003 L 239 1003 L 239 1004 L 240 1004 L 240 1005 L 241 1005 L 241 1006 L 242 1006 L 242 1007 L 244 1007 L 244 1008 L 245 1008 L 245 1009 L 246 1009 L 246 1010 L 247 1010 L 247 1011 L 249 1011 L 249 1012 L 250 1012 L 250 1013 L 251 1013 L 251 1014 L 253 1014 L 253 1015 L 254 1015 L 254 1016 L 255 1016 L 255 1017 L 256 1017 L 256 1018 L 258 1018 L 258 1019 L 259 1019 L 259 1020 L 260 1020 L 260 1021 L 261 1021 L 261 1022 L 263 1022 L 263 1023 L 264 1023 L 264 1024 L 265 1024 L 265 1025 L 266 1025 L 266 1026 L 268 1026 L 268 1027 L 269 1027 L 269 1028 L 270 1028 L 270 1029 L 271 1029 L 271 1030 L 273 1030 L 273 1031 L 274 1031 L 274 1032 L 275 1032 L 275 1033 L 277 1033 L 277 1034 L 278 1034 L 278 1035 L 279 1035 L 279 1036 L 280 1036 L 280 1037 L 282 1037 L 282 1038 L 283 1038 L 283 1039 L 284 1039 L 284 1040 L 285 1040 L 285 1041 L 287 1041 L 287 1042 L 288 1042 L 288 1043 L 289 1043 L 289 1044 L 290 1044 L 290 1045 L 292 1045 L 292 1046 L 293 1046 L 293 1047 L 294 1047 L 294 1048 L 295 1048 L 295 1049 L 297 1049 L 297 1050 L 298 1050 L 298 1051 L 299 1051 L 299 1052 L 300 1052 L 300 1053 L 302 1053 L 302 1054 L 303 1054 L 303 1055 L 304 1055 L 304 1056 L 306 1056 L 306 1057 L 307 1057 L 307 1058 L 308 1058 L 308 1059 L 309 1059 L 309 1060 L 311 1060 L 311 1061 L 312 1061 L 312 1062 L 313 1062 L 313 1063 L 314 1063 L 314 1064 L 316 1064 L 316 1065 L 317 1065 L 317 1066 L 318 1066 L 318 1067 L 319 1067 L 319 1068 L 321 1068 L 321 1069 L 322 1069 L 322 1070 L 323 1070 L 323 1071 L 324 1071 L 324 1072 L 326 1072 L 326 1073 L 327 1073 L 327 1074 L 328 1074 L 328 1075 L 330 1075 L 330 1076 L 331 1076 L 331 1077 L 332 1077 L 332 1078 L 333 1078 L 333 1079 L 335 1079 L 335 1080 L 336 1080 L 336 1081 L 337 1081 L 337 1082 L 338 1082 L 338 1083 L 340 1083 L 340 1084 L 341 1084 L 341 1085 L 342 1085 L 342 1086 L 343 1086 L 343 1087 L 345 1087 L 345 1088 L 346 1088 L 346 1089 L 347 1089 L 347 1090 L 348 1090 L 348 1091 L 350 1091 L 350 1092 L 351 1092 L 351 1093 L 352 1093 L 352 1094 L 353 1094 L 353 1095 L 355 1095 L 355 1096 L 356 1096 L 356 1097 L 357 1097 L 357 1098 L 359 1098 L 359 1099 L 360 1099 L 360 1100 L 361 1100 L 361 1101 L 362 1101 L 362 1102 L 364 1102 L 364 1103 L 365 1103 L 365 1104 L 366 1104 L 366 1105 L 367 1105 L 367 1106 L 369 1106 L 369 1107 L 370 1107 L 370 1108 L 371 1108 L 371 1109 L 372 1109 L 372 1110 L 374 1110 L 374 1111 L 375 1111 L 375 1112 L 376 1112 L 376 1113 L 377 1113 L 377 1114 L 379 1114 L 379 1115 L 380 1115 L 380 1116 L 381 1116 L 381 1117 L 383 1117 L 383 1118 L 384 1118 L 384 1119 L 385 1119 L 385 1120 L 386 1120 L 386 1121 L 388 1121 L 388 1122 L 389 1122 L 389 1123 L 390 1123 L 390 1124 L 391 1124 L 391 1125 L 393 1125 L 393 1126 L 394 1126 L 394 1127 L 395 1127 L 395 1128 L 396 1128 L 396 1129 L 398 1129 L 398 1130 L 399 1130 L 399 1131 L 400 1131 L 400 1132 L 401 1132 L 401 1133 L 403 1133 L 403 1134 L 404 1134 L 404 1135 L 405 1135 L 405 1136 L 406 1136 L 406 1137 L 408 1137 L 408 1138 L 409 1138 L 409 1139 L 410 1139 L 410 1140 L 412 1140 L 412 1141 L 413 1141 L 413 1142 L 414 1142 L 414 1143 L 415 1143 L 415 1144 L 417 1144 L 417 1145 L 418 1145 L 418 1146 L 419 1146 L 419 1147 L 420 1147 L 420 1148 L 422 1148 L 422 1149 L 423 1149 L 423 1150 L 424 1150 L 424 1151 L 425 1151 L 425 1152 L 427 1152 L 427 1153 L 428 1153 L 428 1154 L 429 1154 L 429 1155 L 430 1155 L 430 1156 L 432 1156 L 432 1157 L 433 1157 L 433 1158 L 434 1158 L 434 1159 L 436 1159 L 436 1160 L 437 1160 L 437 1161 L 438 1161 L 438 1162 L 439 1162 L 439 1163 L 441 1163 L 441 1164 L 442 1164 L 442 1165 L 443 1165 L 443 1166 L 444 1166 L 444 1167 L 446 1167 L 446 1168 L 447 1168 L 447 1169 L 448 1169 L 448 1170 L 449 1170 L 449 1171 L 451 1171 L 451 1172 L 452 1172 L 452 1173 L 453 1173 L 453 1174 L 454 1174 L 454 1175 L 456 1175 L 456 1176 L 457 1176 L 457 1177 L 458 1177 L 458 1178 L 459 1178 L 459 1179 L 461 1179 L 461 1180 L 462 1180 L 462 1181 L 463 1181 L 463 1182 L 465 1182 L 465 1183 L 466 1183 L 466 1184 L 467 1184 L 467 1185 L 468 1185 L 468 1186 L 470 1186 L 470 1187 L 471 1187 L 471 1188 L 472 1188 L 472 1189 L 473 1189 L 473 1190 L 475 1190 L 475 1191 L 476 1191 L 476 1192 L 477 1192 L 477 1193 L 478 1193 L 478 1194 L 480 1194 L 480 1195 L 481 1195 L 481 1196 L 482 1196 L 482 1197 L 483 1197 L 483 1198 L 485 1198 L 485 1199 L 486 1199 L 486 1200 L 487 1200 L 487 1201 L 489 1201 L 489 1202 L 490 1202 L 490 1203 L 491 1203 L 491 1204 L 492 1204 L 492 1205 L 494 1205 L 494 1206 L 495 1206 L 495 1207 L 496 1207 L 496 1208 L 497 1208 L 497 1209 L 499 1209 L 499 1210 L 500 1210 L 500 1211 L 501 1211 L 501 1212 L 502 1212 L 502 1213 L 504 1213 L 504 1214 L 505 1214 L 505 1215 L 506 1215 L 506 1216 L 507 1216 L 507 1217 L 509 1217 L 509 1218 L 510 1218 L 510 1219 L 511 1219 L 511 1220 L 513 1220 L 513 1221 L 514 1221 L 514 1222 L 515 1222 L 515 1223 L 516 1223 L 516 1224 L 518 1224 L 518 1225 L 519 1225 L 519 1226 L 1194 1226 L 1194 774 L 910 774 L 910 943 L 620 943 L 620 942 L 618 942 L 618 941 L 617 941 L 617 940 L 616 940 L 616 939 L 615 939 L 615 938 L 613 938 L 613 937 L 612 937 L 612 936 L 611 936 L 611 935 L 610 935 L 610 934 L 608 934 L 608 933 L 607 933 L 607 932 L 606 932 L 606 931 L 605 931 L 605 930 L 603 930 L 603 929 L 602 929 L 602 928 L 601 928 L 601 927 L 600 927 L 600 926 L 598 926 L 598 925 L 597 925 L 597 924 L 596 924 L 596 923 L 594 923 L 594 922 L 593 922 L 593 921 L 592 921 L 592 920 L 591 920 L 591 919 L 589 919 L 589 918 L 588 918 L 588 917 L 587 917 L 587 916 L 586 916 L 586 915 L 584 915 L 584 914 L 583 914 L 583 913 L 582 913 L 582 912 L 581 912 L 581 911 L 579 911 L 579 910 L 578 910 L 578 909 L 577 909 L 577 908 L 576 908 L 576 907 L 574 907 L 574 906 L 573 906 L 573 905 L 572 905 L 572 904 L 570 904 L 570 903 L 569 903 L 569 902 L 568 902 L 568 901 L 567 901 L 567 900 L 565 900 L 565 899 L 564 899 L 564 898 L 563 898 L 563 897 L 562 897 L 562 896 L 560 896 L 560 895 L 559 895 L 559 894 L 558 894 L 558 893 L 557 893 L 557 892 L 555 892 L 555 891 L 554 891 L 554 890 L 553 890 L 553 889 L 552 889 L 552 888 L 550 888 L 550 887 L 549 887 L 549 886 L 548 886 L 548 885 L 546 885 L 546 884 L 545 884 L 545 883 L 544 883 L 544 882 L 543 882 L 543 881 L 541 881 L 541 880 L 540 880 L 540 879 L 539 879 L 539 878 L 538 878 L 538 877 L 536 877 L 536 876 L 535 876 L 535 875 L 534 875 L 534 874 L 533 874 L 533 873 L 531 873 L 531 872 L 530 872 L 530 871 L 529 871 L 529 870 L 528 870 L 528 869 L 526 869 L 526 868 L 525 868 L 525 867 L 524 867 L 524 866 L 522 866 L 522 865 L 521 865 L 521 864 L 520 864 L 520 863 L 519 863 L 519 862 L 517 862 L 517 861 L 516 861 L 516 860 L 515 860 L 515 859 L 514 859 L 514 858 L 512 858 L 512 857 L 511 857 L 511 856 L 510 856 L 510 855 L 509 855 L 509 854 L 507 854 L 507 853 L 506 853 L 506 852 L 505 852 L 505 851 L 504 851 L 504 850 L 502 850 L 502 849 L 501 849 L 501 848 L 500 848 L 500 847 L 498 847 L 498 846 L 497 846 L 497 845 L 496 845 L 496 844 L 495 844 L 495 843 L 493 843 L 493 842 L 492 842 L 492 841 L 491 841 L 491 840 L 490 840 L 490 839 L 488 839 L 488 838 L 487 838 L 487 837 L 486 837 L 486 836 L 485 836 L 485 835 L 483 835 L 483 834 L 482 834 L 482 833 L 481 833 L 481 832 L 480 832 L 480 831 L 478 831 L 478 830 L 477 830 L 477 829 L 476 829 L 476 828 L 474 828 L 474 827 L 473 827 L 473 826 L 472 826 L 472 825 L 471 825 L 471 824 L 469 824 L 469 823 L 468 823 L 468 822 L 467 822 L 467 821 L 466 821 L 466 820 L 464 820 L 464 819 L 463 819 L 463 818 L 462 818 L 462 817 L 461 817 L 461 816 L 459 816 L 459 815 L 458 815 L 458 814 L 457 814 L 457 813 L 456 813 L 456 812 L 454 812 L 454 811 L 453 811 L 453 810 L 452 810 L 452 809 L 450 809 L 450 808 L 449 808 L 449 807 L 448 807 L 448 806 L 447 806 L 447 805 L 445 805 L 445 804 L 444 804 L 444 803 L 443 803 L 443 802 L 442 802 L 442 801 L 440 801 L 440 800 L 439 800 L 439 799 L 438 799 L 438 798 L 437 798 L 437 797 L 435 797 L 435 796 L 434 796 L 434 795 L 433 795 L 433 794 L 432 794 L 432 793 L 430 793 L 430 792 L 429 792 L 429 791 L 428 791 L 428 790 L 426 790 L 426 789 L 425 789 L 425 788 L 424 788 L 424 787 L 423 787 L 423 786 L 421 786 L 421 785 L 420 785 L 420 784 L 419 784 L 419 783 L 418 783 L 418 782 L 416 782 L 416 781 L 415 781 L 415 780 L 414 780 L 414 779 L 413 779 L 413 778 L 411 778 L 411 777 L 410 777 L 410 776 L 409 776 L 409 775 L 408 775 L 408 774 L 406 774 L 406 773 L 405 773 L 405 772 L 404 772 L 404 771 L 402 771 L 402 770 L 401 770 L 401 769 L 400 769 L 400 768 L 399 768 L 399 767 L 397 767 L 397 766 L 396 766 L 396 765 L 395 765 L 395 764 L 394 764 L 394 763 L 392 763 L 392 762 L 391 762 L 391 761 L 390 761 L 390 760 L 389 760 L 389 759 L 387 759 L 387 758 L 386 758 L 386 757 L 385 757 L 385 756 L 384 756 L 384 755 L 382 755 L 382 754 L 381 754 L 381 753 L 380 753 L 380 752 L 378 752 L 378 751 L 377 751 L 377 750 L 376 750 L 376 749 L 375 749 L 375 748 L 373 748 L 373 747 L 372 747 L 372 746 L 371 746 L 371 745 L 370 745 L 370 744 L 368 744 L 368 743 L 367 743 L 367 742 L 366 742 L 366 741 L 365 741 L 365 740 L 363 740 L 363 739 L 362 739 L 362 738 L 361 738 L 361 737 L 360 737 L 360 736 L 358 736 L 358 735 L 357 735 L 357 734 L 356 734 L 356 733 L 354 733 L 354 732 L 353 732 L 353 731 L 352 731 L 352 730 L 351 730 L 351 729 L 349 729 L 349 728 L 348 728 L 348 727 L 347 727 L 347 726 L 346 726 L 346 725 L 344 725 L 344 724 L 343 724 L 343 723 L 342 723 L 342 722 L 341 722 L 341 721 L 339 721 L 339 720 L 338 720 L 338 719 L 337 719 L 337 718 L 336 718 L 336 717 L 334 717 L 334 716 L 333 716 L 333 715 L 332 715 L 332 714 L 330 714 L 330 713 L 329 713 L 329 712 L 328 712 L 328 711 L 327 711 L 327 710 L 325 710 L 325 709 L 324 709 L 324 708 L 323 708 L 323 707 L 322 707 L 322 706 L 320 706 L 320 705 L 319 705 L 319 704 L 318 704 L 318 703 L 317 703 L 317 702 L 315 702 L 315 701 L 314 701 L 314 700 L 313 700 L 313 699 L 312 699 L 312 698 L 310 698 L 310 697 L 309 697 L 309 696 L 308 696 L 308 695 L 306 695 L 306 694 L 305 694 L 305 693 L 304 693 L 304 692 L 303 692 L 303 691 L 301 691 L 301 690 L 300 690 L 300 689 L 299 689 L 299 688 L 298 688 L 298 687 L 296 687 L 296 686 L 295 686 L 295 685 L 294 685 L 294 684 L 293 684 L 293 683 L 291 683 L 291 682 L 290 682 L 290 681 L 289 681 L 289 680 L 288 680 L 288 679 L 286 679 L 286 678 L 285 678 L 285 677 L 284 677 L 284 676 L 282 676 L 282 675 L 281 675 L 281 674 L 280 674 L 280 673 L 279 673 L 279 672 L 277 672 L 277 671 L 276 671 L 276 670 L 275 670 L 275 669 L 274 669 L 274 668 L 272 668 L 272 667 L 271 667 L 271 666 L 270 666 L 270 665 L 269 665 L 269 664 L 267 664 L 267 663 L 266 663 L 266 662 L 265 662 L 265 661 L 264 661 L 264 660 L 262 660 L 262 659 L 261 659 L 261 658 L 260 658 L 260 657 L 258 657 L 258 656 L 257 656 L 257 655 L 256 655 L 256 654 L 255 654 L 255 653 L 253 653 L 253 652 L 252 652 L 252 651 L 251 651 L 251 650 L 250 650 L 250 649 L 248 649 L 248 648 L 247 648 L 247 647 L 246 647 L 246 646 L 245 646 L 245 645 L 243 645 L 243 644 L 242 644 L 242 643 L 241 643 L 241 642 L 239 642 L 239 641 L 238 641 L 238 640 L 237 640 L 237 639 L 236 639 L 236 638 L 234 638 L 234 637 L 233 637 L 233 636 L 232 636 L 232 635 L 231 635 L 231 634 L 229 634 L 229 633 L 228 633 L 228 632 L 227 632 L 227 631 L 226 631 L 226 630 L 224 630 L 224 629 L 223 629 L 223 628 L 222 628 L 222 627 L 221 627 L 221 626 L 219 626 L 219 625 L 218 625 L 218 624 L 217 624 L 217 623 L 216 623 L 216 622 L 214 622 L 214 621 L 213 621 L 213 620 L 212 620 L 212 619 L 210 619 L 210 618 L 209 618 L 209 617 L 208 617 L 208 616 L 207 616 L 207 615 L 205 615 L 205 614 L 204 614 L 204 613 L 203 613 L 203 612 L 202 612 L 202 611 L 200 611 L 200 610 L 199 610 L 199 609 L 198 609 L 198 608 L 197 608 L 197 607 L 195 607 L 195 606 L 194 606 L 194 605 L 193 605 L 193 604 L 191 604 L 191 603 L 190 603 L 190 602 L 189 602 L 189 601 L 188 601 L 188 600 L 186 600 L 186 599 L 185 599 L 185 598 L 184 598 L 184 597 L 183 597 L 183 596 L 181 596 L 181 595 L 180 595 L 180 594 L 179 594 L 179 593 L 178 593 L 178 592 L 176 592 L 176 591 L 175 591 L 175 590 L 174 590 L 174 589 L 173 589 L 173 588 L 171 588 L 171 587 L 170 587 L 170 586 L 169 586 L 169 585 L 167 585 L 167 584 L 166 584 L 166 583 L 165 583 L 165 582 L 164 582 L 164 581 L 162 581 L 162 580 L 161 580 L 161 579 L 160 579 L 160 578 L 159 578 L 159 577 L 157 577 L 157 576 L 156 576 L 156 575 L 155 575 L 155 574 L 154 574 L 154 573 L 152 573 L 152 572 L 151 572 L 151 571 L 150 571 L 150 570 L 149 570 L 149 569 L 147 569 L 147 568 L 146 568 L 146 567 L 145 567 L 145 566 L 143 566 L 143 565 L 142 565 L 142 564 L 141 564 L 141 563 L 140 563 L 140 562 L 138 562 L 138 561 L 137 561 L 137 560 L 136 560 L 136 559 L 135 559 L 135 558 L 133 558 L 133 557 L 132 557 L 132 556 L 131 556 L 131 555 L 130 555 L 130 554 L 128 554 L 128 553 L 127 553 L 127 552 L 126 552 L 126 551 L 125 551 L 125 550 L 123 550 L 123 549 L 122 549 L 122 548 L 121 548 L 121 547 L 119 547 L 119 546 L 118 546 L 118 545 L 117 545 L 117 544 L 116 544 L 116 543 L 114 543 L 114 542 L 113 542 L 113 541 L 112 541 L 112 540 L 111 540 L 111 539 L 109 539 L 109 538 L 108 538 L 108 537 L 107 537 L 107 536 L 106 536 L 106 535 L 104 535 L 104 534 L 103 534 L 103 533 L 102 533 L 102 532 L 101 532 L 101 531 L 99 531 L 99 530 L 98 530 L 98 529 L 97 529 L 97 528 L 95 528 L 95 527 L 94 527 L 94 526 L 93 526 L 93 525 L 92 525 L 92 524 L 90 524 L 90 523 L 89 523 L 89 522 L 88 522 L 88 521 L 87 521 L 87 520 L 85 520 L 85 519 L 84 519 L 84 518 L 83 518 L 83 517 L 82 517 L 82 516 L 80 516 L 80 515 L 79 515 L 79 514 L 78 514 L 78 513 L 77 513 L 77 512 L 75 512 L 75 511 L 74 511 L 74 510 L 73 510 L 73 509 L 71 509 L 71 508 L 70 508 L 70 507 L 69 507 L 69 506 L 68 506 L 68 505 L 66 505 L 66 504 L 65 504 L 65 503 L 64 503 L 64 502 L 63 502 L 63 501 L 61 501 L 61 500 L 60 500 L 60 499 L 59 499 L 59 498 L 58 498 L 58 497 L 56 497 L 56 496 L 55 496 L 55 495 L 54 495 L 54 494 L 53 494 L 53 493 L 51 493 L 51 492 L 50 492 L 50 491 L 49 491 L 49 490 L 47 490 L 47 489 L 46 489 L 46 488 L 45 488 L 45 487 L 44 487 L 44 486 L 42 486 L 42 485 L 41 485 L 41 484 L 40 484 L 40 483 L 39 483 L 39 482 L 37 482 L 37 481 L 36 481 L 36 480 L 35 480 L 35 479 L 34 479 L 34 478 L 32 478 L 32 477 L 31 477 L 31 476 L 30 476 L 30 475 L 29 475 L 29 474 L 27 474 L 27 473 L 26 473 L 26 472 L 25 472 L 25 471 L 23 471 L 23 470 L 22 470 L 22 469 L 21 469 L 21 468 L 20 468 L 20 467 L 18 467 L 18 466 L 17 466 L 17 465 L 16 465 L 16 464 L 15 464 L 15 463 L 13 463 L 13 462 L 12 462 L 12 461 L 11 461 L 11 460 L 10 460 L 10 459 L 8 459 L 8 458 L 7 458 L 7 457 L 6 457 L 6 456 L 5 456 L 5 455 L 3 455 L 3 454 L 2 454 L 2 453 L 1 453 L 1 452" stroke-linecap="round" />
</g>
</g>
</g>
<g transform="matrix(1.9211538461538462 0 0 1.9211538461538462 640.1690615384613 735.6798435497183)" id="text-logo-path-group"  >
<g style=""  paint-order="stroke"   >
		<g transform="matrix(1 0 0 1 0 0)" id="text-logo-path-0"  >
<path style="stroke: rgb(255,255,255); stroke-width: 0; stroke-dasharray: none; stroke-linecap: butt; stroke-dashoffset: 0; stroke-linejoin: miter; stroke-miterlimit: 4; fill: rgb(99,32,115); fill-rule: nonzero; opacity: 1;"  paint-order="stroke"  transform=" translate(-309.84499999999997, 30.669999999999998)" d="M 19.71 0.88 L 19.71 0.88 Q 14.87 0.88 10.96 -1.54 Q 7.04 -3.96 4.75 -8.01 Q 2.46 -12.06 2.46 -17.07 L 2.46 -17.07 L 2.55 -44.53 Q 2.55 -49.37 4.8 -53.37 Q 7.04 -57.38 10.96 -59.8 Q 14.87 -62.22 19.71 -62.22 L 19.71 -62.22 Q 24.55 -62.22 28.42 -59.84 Q 32.3 -57.46 34.58 -53.46 Q 36.87 -49.46 36.87 -44.53 L 36.87 -44.53 L 36.87 -40.48 Q 36.87 -40.13 36.52 -40.13 L 36.52 -40.13 L 26.66 -40.13 Q 26.31 -40.13 26.31 -40.48 L 26.31 -40.48 L 26.31 -44.53 Q 26.31 -47.43 24.42 -49.54 Q 22.53 -51.66 19.71 -51.66 L 19.71 -51.66 Q 16.54 -51.66 14.87 -49.5 Q 13.2 -47.34 13.2 -44.53 L 13.2 -44.53 L 13.2 -17.07 Q 13.2 -13.82 15.09 -11.79 Q 16.98 -9.77 19.71 -9.77 L 19.71 -9.77 Q 22.53 -9.77 24.42 -12.01 Q 26.31 -14.26 26.31 -17.07 L 26.31 -17.07 L 26.31 -21.12 Q 26.31 -21.47 26.66 -21.47 L 26.66 -21.47 L 36.61 -21.47 Q 36.96 -21.47 36.96 -21.12 L 36.96 -21.12 L 36.96 -17.07 Q 36.96 -12.06 34.63 -8.01 Q 32.3 -3.96 28.42 -1.54 Q 24.55 0.88 19.71 0.88 Z M 53.68 0 L 43.74 0 Q 43.38 0 43.38 -0.44 L 43.38 -0.44 L 43.56 -60.9 Q 43.56 -61.25 43.91 -61.25 L 43.91 -61.25 L 61.69 -61.25 Q 66.44 -61.25 70.44 -58.92 Q 74.45 -56.58 76.82 -52.67 Q 79.2 -48.75 79.2 -43.82 L 79.2 -43.82 Q 79.2 -40.57 78.23 -37.97 Q 77.26 -35.38 75.94 -33.57 Q 74.62 -31.77 73.57 -30.89 L 73.57 -30.89 Q 78.32 -25.61 78.32 -18.48 L 78.32 -18.48 L 78.41 -0.44 Q 78.41 0 77.97 0 L 77.97 0 L 68.02 0 Q 67.67 0 67.67 -0.26 L 67.67 -0.26 L 67.67 -18.48 Q 67.67 -21.65 65.43 -23.98 Q 63.18 -26.31 59.93 -26.31 L 59.93 -26.31 L 54.12 -26.31 L 54.03 -0.44 Q 54.03 0 53.68 0 L 53.68 0 Z M 54.12 -50.69 L 54.12 -36.87 L 61.69 -36.87 Q 64.42 -36.87 66.53 -38.9 Q 68.64 -40.92 68.64 -43.82 L 68.64 -43.82 Q 68.64 -46.64 66.57 -48.66 Q 64.5 -50.69 61.69 -50.69 L 61.69 -50.69 L 54.12 -50.69 Z M 96.18 0 L 86.24 0 Q 85.8 0 85.8 -0.44 L 85.8 -0.44 L 85.89 -60.9 Q 85.89 -61.25 86.24 -61.25 L 86.24 -61.25 L 96.1 -61.25 Q 96.45 -61.25 96.45 -60.9 L 96.45 -60.9 L 96.54 -0.44 Q 96.54 0 96.18 0 L 96.18 0 Z M 119.24 0.88 L 119.24 0.88 Q 114.49 0.88 110.57 -1.54 Q 106.66 -3.96 104.32 -7.96 Q 101.99 -11.97 101.99 -16.81 L 101.99 -16.81 L 101.99 -20.86 Q 101.99 -21.3 102.43 -21.3 L 102.43 -21.3 L 112.29 -21.3 Q 112.64 -21.3 112.64 -20.86 L 112.64 -20.86 L 112.64 -16.81 Q 112.64 -13.9 114.58 -11.84 Q 116.51 -9.77 119.24 -9.77 L 119.24 -9.77 Q 121.97 -9.77 123.9 -11.88 Q 125.84 -13.99 125.84 -16.81 L 125.84 -16.81 Q 125.84 -20.06 121.62 -22.44 L 121.62 -22.44 Q 120.21 -23.23 117.22 -24.9 Q 114.22 -26.58 111.58 -28.07 L 111.58 -28.07 Q 106.74 -30.89 104.41 -35.16 Q 102.08 -39.42 102.08 -44.79 L 102.08 -44.79 Q 102.08 -49.72 104.46 -53.64 Q 106.83 -57.55 110.75 -59.84 Q 114.66 -62.13 119.24 -62.13 L 119.24 -62.13 Q 123.9 -62.13 127.82 -59.8 Q 131.74 -57.46 134.07 -53.55 Q 136.4 -49.63 136.4 -44.79 L 136.4 -44.79 L 136.4 -37.58 Q 136.4 -37.22 136.05 -37.22 L 136.05 -37.22 L 126.19 -37.22 Q 125.84 -37.22 125.84 -37.58 L 125.84 -37.58 L 125.75 -44.79 Q 125.75 -47.87 123.82 -49.81 Q 121.88 -51.74 119.24 -51.74 L 119.24 -51.74 Q 116.51 -51.74 114.58 -49.68 Q 112.64 -47.61 112.64 -44.79 L 112.64 -44.79 Q 112.64 -41.89 113.87 -39.95 Q 115.1 -38.02 118.36 -36.26 L 118.36 -36.26 Q 118.8 -35.99 120.08 -35.33 Q 121.35 -34.67 122.85 -33.84 Q 124.34 -33 125.53 -32.38 Q 126.72 -31.77 126.98 -31.59 L 126.98 -31.59 Q 131.38 -29.13 133.94 -25.56 Q 136.49 -22 136.49 -16.81 L 136.49 -16.81 Q 136.49 -11.79 134.16 -7.79 Q 131.82 -3.78 127.91 -1.45 Q 123.99 0.88 119.24 0.88 Z M 152.94 0 L 143.09 0 Q 142.65 0 142.65 -0.44 L 142.65 -0.44 L 142.82 -60.9 Q 142.82 -61.25 143.18 -61.25 L 143.18 -61.25 L 160.07 -61.25 Q 168.17 -61.25 172.88 -56.32 Q 177.58 -51.39 177.58 -42.94 L 177.58 -42.94 Q 177.58 -36.7 175.12 -32.12 Q 172.66 -27.54 168.7 -25.08 Q 164.74 -22.62 160.07 -22.62 L 160.07 -22.62 L 153.38 -22.62 L 153.38 -0.44 Q 153.38 0 152.94 0 L 152.94 0 Z M 153.38 -50.69 L 153.38 -33.26 L 160.07 -33.26 Q 162.89 -33.26 164.96 -35.95 Q 167.02 -38.63 167.02 -42.94 L 167.02 -42.94 Q 167.02 -46.38 165.18 -48.58 Q 163.33 -50.78 160.07 -50.78 L 160.07 -50.78 L 153.38 -50.69 Z M 198.53 0.88 L 198.53 0.88 Q 193.78 0.88 189.86 -1.54 Q 185.94 -3.96 183.61 -7.96 Q 181.28 -11.97 181.28 -16.81 L 181.28 -16.81 L 181.28 -20.86 Q 181.28 -21.3 181.72 -21.3 L 181.72 -21.3 L 191.58 -21.3 Q 191.93 -21.3 191.93 -20.86 L 191.93 -20.86 L 191.93 -16.81 Q 191.93 -13.9 193.86 -11.84 Q 195.8 -9.77 198.53 -9.77 L 198.53 -9.77 Q 201.26 -9.77 203.19 -11.88 Q 205.13 -13.99 205.13 -16.81 L 205.13 -16.81 Q 205.13 -20.06 200.9 -22.44 L 200.9 -22.44 Q 199.5 -23.23 196.5 -24.9 Q 193.51 -26.58 190.87 -28.07 L 190.87 -28.07 Q 186.03 -30.89 183.7 -35.16 Q 181.37 -39.42 181.37 -44.79 L 181.37 -44.79 Q 181.37 -49.72 183.74 -53.64 Q 186.12 -57.55 190.04 -59.84 Q 193.95 -62.13 198.53 -62.13 L 198.53 -62.13 Q 203.19 -62.13 207.11 -59.8 Q 211.02 -57.46 213.36 -53.55 Q 215.69 -49.63 215.69 -44.79 L 215.69 -44.79 L 215.69 -37.58 Q 215.69 -37.22 215.34 -37.22 L 215.34 -37.22 L 205.48 -37.22 Q 205.13 -37.22 205.13 -37.58 L 205.13 -37.58 L 205.04 -44.79 Q 205.04 -47.87 203.1 -49.81 Q 201.17 -51.74 198.53 -51.74 L 198.53 -51.74 Q 195.8 -51.74 193.86 -49.68 Q 191.93 -47.61 191.93 -44.79 L 191.93 -44.79 Q 191.93 -41.89 193.16 -39.95 Q 194.39 -38.02 197.65 -36.26 L 197.65 -36.26 Q 198.09 -35.99 199.36 -35.33 Q 200.64 -34.67 202.14 -33.84 Q 203.63 -33 204.82 -32.38 Q 206.01 -31.77 206.27 -31.59 L 206.27 -31.59 Q 210.67 -29.13 213.22 -25.56 Q 215.78 -22 215.78 -16.81 L 215.78 -16.81 Q 215.78 -11.79 213.44 -7.79 Q 211.11 -3.78 207.2 -1.45 Q 203.28 0.88 198.53 0.88 Z M 232.23 0 L 222.38 0 Q 221.94 0 221.94 -0.44 L 221.94 -0.44 L 222.11 -60.9 Q 222.11 -61.25 222.46 -61.25 L 222.46 -61.25 L 239.36 -61.25 Q 247.46 -61.25 252.16 -56.32 Q 256.87 -51.39 256.87 -42.94 L 256.87 -42.94 Q 256.87 -36.7 254.41 -32.12 Q 251.94 -27.54 247.98 -25.08 Q 244.02 -22.62 239.36 -22.62 L 239.36 -22.62 L 232.67 -22.62 L 232.67 -0.44 Q 232.67 0 232.23 0 L 232.23 0 Z M 232.67 -50.69 L 232.67 -33.26 L 239.36 -33.26 Q 242.18 -33.26 244.24 -35.95 Q 246.31 -38.63 246.31 -42.94 L 246.31 -42.94 Q 246.31 -46.38 244.46 -48.58 Q 242.62 -50.78 239.36 -50.78 L 239.36 -50.78 L 232.67 -50.69 Z M 273.24 0 L 263.3 0 Q 262.86 0 262.86 -0.44 L 262.86 -0.44 L 262.94 -60.9 Q 262.94 -61.25 263.3 -61.25 L 263.3 -61.25 L 273.15 -61.25 Q 273.5 -61.25 273.5 -60.9 L 273.5 -60.9 L 273.59 -0.44 Q 273.59 0 273.24 0 L 273.24 0 Z M 297.53 0.88 L 297.53 0.88 Q 292.69 0.88 288.77 -1.54 Q 284.86 -3.96 282.57 -8.01 Q 280.28 -12.06 280.28 -17.07 L 280.28 -17.07 L 280.37 -44.53 Q 280.37 -49.37 282.61 -53.37 Q 284.86 -57.38 288.77 -59.8 Q 292.69 -62.22 297.53 -62.22 L 297.53 -62.22 Q 302.37 -62.22 306.24 -59.84 Q 310.11 -57.46 312.4 -53.46 Q 314.69 -49.46 314.69 -44.53 L 314.69 -44.53 L 314.69 -40.48 Q 314.69 -40.13 314.34 -40.13 L 314.34 -40.13 L 304.48 -40.13 Q 304.13 -40.13 304.13 -40.48 L 304.13 -40.48 L 304.13 -44.53 Q 304.13 -47.43 302.24 -49.54 Q 300.34 -51.66 297.53 -51.66 L 297.53 -51.66 Q 294.36 -51.66 292.69 -49.5 Q 291.02 -47.34 291.02 -44.53 L 291.02 -44.53 L 291.02 -17.07 Q 291.02 -13.82 292.91 -11.79 Q 294.8 -9.77 297.53 -9.77 L 297.53 -9.77 Q 300.34 -9.77 302.24 -12.01 Q 304.13 -14.26 304.13 -17.07 L 304.13 -17.07 L 304.13 -21.12 Q 304.13 -21.47 304.48 -21.47 L 304.48 -21.47 L 314.42 -21.47 Q 314.78 -21.47 314.78 -21.12 L 314.78 -21.12 L 314.78 -17.07 Q 314.78 -12.06 312.44 -8.01 Q 310.11 -3.96 306.24 -1.54 Q 302.37 0.88 297.53 0.88 Z M 349.98 0 L 321.55 0 Q 321.2 0 321.2 -0.44 L 321.2 -0.44 L 321.29 -60.9 Q 321.29 -61.25 321.64 -61.25 L 321.64 -61.25 L 349.89 -61.25 Q 350.24 -61.25 350.24 -60.81 L 350.24 -60.81 L 350.24 -50.95 Q 350.24 -50.6 349.89 -50.6 L 349.89 -50.6 L 331.85 -50.6 L 331.85 -36.87 L 349.89 -36.87 Q 350.24 -36.87 350.24 -36.52 L 350.24 -36.52 L 350.33 -26.58 Q 350.33 -26.22 349.98 -26.22 L 349.98 -26.22 L 331.85 -26.22 L 331.85 -10.82 L 349.98 -10.82 Q 350.33 -10.82 350.33 -10.38 L 350.33 -10.38 L 350.33 -0.35 Q 350.33 0 349.98 0 L 349.98 0 Z M 386.14 0.88 L 386.14 0.88 Q 381.39 0.88 377.48 -1.54 Q 373.56 -3.96 371.23 -7.96 Q 368.9 -11.97 368.9 -16.81 L 368.9 -16.81 L 368.9 -20.86 Q 368.9 -21.3 369.34 -21.3 L 369.34 -21.3 L 379.19 -21.3 Q 379.54 -21.3 379.54 -20.86 L 379.54 -20.86 L 379.54 -16.81 Q 379.54 -13.9 381.48 -11.84 Q 383.42 -9.77 386.14 -9.77 L 386.14 -9.77 Q 388.87 -9.77 390.81 -11.88 Q 392.74 -13.99 392.74 -16.81 L 392.74 -16.81 Q 392.74 -20.06 388.52 -22.44 L 388.52 -22.44 Q 387.11 -23.23 384.12 -24.9 Q 381.13 -26.58 378.49 -28.07 L 378.49 -28.07 Q 373.65 -30.89 371.32 -35.16 Q 368.98 -39.42 368.98 -44.79 L 368.98 -44.79 Q 368.98 -49.72 371.36 -53.64 Q 373.74 -57.55 377.65 -59.84 Q 381.57 -62.13 386.14 -62.13 L 386.14 -62.13 Q 390.81 -62.13 394.72 -59.8 Q 398.64 -57.46 400.97 -53.55 Q 403.3 -49.63 403.3 -44.79 L 403.3 -44.79 L 403.3 -37.58 Q 403.3 -37.22 402.95 -37.22 L 402.95 -37.22 L 393.1 -37.22 Q 392.74 -37.22 392.74 -37.58 L 392.74 -37.58 L 392.66 -44.79 Q 392.66 -47.87 390.72 -49.81 Q 388.78 -51.74 386.14 -51.74 L 386.14 -51.74 Q 383.42 -51.74 381.48 -49.68 Q 379.54 -47.61 379.54 -44.79 L 379.54 -44.79 Q 379.54 -41.89 380.78 -39.95 Q 382.01 -38.02 385.26 -36.26 L 385.26 -36.26 Q 385.7 -35.99 386.98 -35.33 Q 388.26 -34.67 389.75 -33.84 Q 391.25 -33 392.44 -32.38 Q 393.62 -31.77 393.89 -31.59 L 393.89 -31.59 Q 398.29 -29.13 400.84 -25.56 Q 403.39 -22 403.39 -16.81 L 403.39 -16.81 Q 403.39 -11.79 401.06 -7.79 Q 398.73 -3.78 394.81 -1.45 Q 390.9 0.88 386.14 0.88 Z M 427.86 0 L 417.91 0 Q 417.56 0 417.56 -0.44 L 417.56 -0.44 L 417.56 -50.6 L 406.12 -50.6 Q 405.68 -50.6 405.68 -51.04 L 405.68 -51.04 L 405.77 -60.9 Q 405.77 -61.25 406.12 -61.25 L 406.12 -61.25 L 439.56 -61.25 Q 440 -61.25 440 -60.9 L 440 -60.9 L 440 -51.04 Q 440 -50.6 439.65 -50.6 L 439.65 -50.6 L 428.12 -50.6 L 428.21 -0.44 Q 428.21 0 427.86 0 L 427.86 0 Z M 460.5 0.88 L 460.5 0.88 Q 455.84 0.88 451.88 -1.54 Q 447.92 -3.96 445.59 -8.01 Q 443.26 -12.06 443.26 -16.9 L 443.26 -16.9 L 443.43 -60.9 Q 443.43 -61.25 443.78 -61.25 L 443.78 -61.25 L 453.64 -61.25 Q 453.99 -61.25 453.99 -60.9 L 453.99 -60.9 L 453.99 -16.9 Q 453.99 -13.9 455.88 -11.84 Q 457.78 -9.77 460.5 -9.77 L 460.5 -9.77 Q 463.32 -9.77 465.21 -11.84 Q 467.1 -13.9 467.1 -16.9 L 467.1 -16.9 L 467.1 -60.9 Q 467.1 -61.25 467.46 -61.25 L 467.46 -61.25 L 477.31 -61.25 Q 477.66 -61.25 477.66 -60.9 L 477.66 -60.9 L 477.84 -16.9 Q 477.84 -11.97 475.51 -7.92 Q 473.18 -3.87 469.26 -1.5 Q 465.34 0.88 460.5 0.88 Z M 500.98 -0.09 L 485.23 0 Q 484.79 0 484.79 -0.44 L 484.79 -0.44 L 484.97 -60.9 Q 484.97 -61.25 485.32 -61.25 L 485.32 -61.25 L 501.78 -61.34 Q 506.62 -61.42 510.62 -59.05 Q 514.62 -56.67 517 -52.67 Q 519.38 -48.66 519.38 -43.82 L 519.38 -43.82 L 519.38 -18.57 Q 519.38 -13.46 516.91 -9.28 Q 514.45 -5.1 510.31 -2.64 Q 506.18 -0.18 500.98 -0.09 L 500.98 -0.09 Z M 495.62 -50.69 L 495.53 -10.82 L 500.98 -10.82 Q 504.24 -10.82 506.48 -13.11 Q 508.73 -15.4 508.73 -18.57 L 508.73 -18.57 L 508.73 -43.91 Q 508.73 -46.73 506.66 -48.8 Q 504.59 -50.86 501.78 -50.78 L 501.78 -50.78 L 495.62 -50.69 Z M 536.71 0 L 526.77 0 Q 526.33 0 526.33 -0.44 L 526.33 -0.44 L 526.42 -60.9 Q 526.42 -61.25 526.77 -61.25 L 526.77 -61.25 L 536.62 -61.25 Q 536.98 -61.25 536.98 -60.9 L 536.98 -60.9 L 537.06 -0.44 Q 537.06 0 536.71 0 L 536.71 0 Z M 561.09 0.88 L 561.09 0.88 Q 556.34 0.88 552.42 -1.54 Q 548.5 -3.96 546.13 -7.96 Q 543.75 -11.97 543.75 -16.81 L 543.75 -16.81 L 543.84 -44.7 Q 543.84 -49.54 546.17 -53.5 Q 548.5 -57.46 552.46 -59.84 Q 556.42 -62.22 561.09 -62.22 L 561.09 -62.22 Q 565.84 -62.22 569.71 -59.84 Q 573.58 -57.46 575.92 -53.5 Q 578.25 -49.54 578.25 -44.7 L 578.25 -44.7 L 578.34 -16.81 Q 578.34 -11.97 576 -7.96 Q 573.67 -3.96 569.76 -1.54 Q 565.84 0.88 561.09 0.88 Z M 561.09 -9.77 L 561.09 -9.77 Q 563.73 -9.77 565.71 -11.92 Q 567.69 -14.08 567.69 -16.81 L 567.69 -16.81 L 567.6 -44.7 Q 567.6 -47.61 565.75 -49.63 Q 563.9 -51.66 561.09 -51.66 L 561.09 -51.66 Q 558.36 -51.66 556.42 -49.68 Q 554.49 -47.7 554.49 -44.7 L 554.49 -44.7 L 554.49 -16.81 Q 554.49 -13.9 556.42 -11.84 Q 558.36 -9.77 561.09 -9.77 Z M 599.98 0.88 L 599.98 0.88 Q 595.23 0.88 591.32 -1.54 Q 587.4 -3.96 585.07 -7.96 Q 582.74 -11.97 582.74 -16.81 L 582.74 -16.81 L 582.74 -20.86 Q 582.74 -21.3 583.18 -21.3 L 583.18 -21.3 L 593.03 -21.3 Q 593.38 -21.3 593.38 -20.86 L 593.38 -20.86 L 593.38 -16.81 Q 593.38 -13.9 595.32 -11.84 Q 597.26 -9.77 599.98 -9.77 L 599.98 -9.77 Q 602.71 -9.77 604.65 -11.88 Q 606.58 -13.99 606.58 -16.81 L 606.58 -16.81 Q 606.58 -20.06 602.36 -22.44 L 602.36 -22.44 Q 600.95 -23.23 597.96 -24.9 Q 594.97 -26.58 592.33 -28.07 L 592.33 -28.07 Q 587.49 -30.89 585.16 -35.16 Q 582.82 -39.42 582.82 -44.79 L 582.82 -44.79 Q 582.82 -49.72 585.2 -53.64 Q 587.58 -57.55 591.49 -59.84 Q 595.41 -62.13 599.98 -62.13 L 599.98 -62.13 Q 604.65 -62.13 608.56 -59.8 Q 612.48 -57.46 614.81 -53.55 Q 617.14 -49.63 617.14 -44.79 L 617.14 -44.79 L 617.14 -37.58 Q 617.14 -37.22 616.79 -37.22 L 616.79 -37.22 L 606.94 -37.22 Q 606.58 -37.22 606.58 -37.58 L 606.58 -37.58 L 606.5 -44.79 Q 606.5 -47.87 604.56 -49.81 Q 602.62 -51.74 599.98 -51.74 L 599.98 -51.74 Q 597.26 -51.74 595.32 -49.68 Q 593.38 -47.61 593.38 -44.79 L 593.38 -44.79 Q 593.38 -41.89 594.62 -39.95 Q 595.85 -38.02 599.1 -36.26 L 599.1 -36.26 Q 599.54 -35.99 600.82 -35.33 Q 602.1 -34.67 603.59 -33.84 Q 605.09 -33 606.28 -32.38 Q 607.46 -31.77 607.73 -31.59 L 607.73 -31.59 Q 612.13 -29.13 614.68 -25.56 Q 617.23 -22 617.23 -16.81 L 617.23 -16.81 Q 617.23 -11.79 614.9 -7.79 Q 612.57 -3.78 608.65 -1.45 Q 604.74 0.88 599.98 0.88 Z" stroke-linecap="round" />
</g>
</g>
</g>
<g transform="matrix(2.236690153052459 -0.7701541820690493 0.7701541820690493 2.236690153052459 453.5525154865701 336.1568386948247)" id="shape-5abb2386-7af1-4995-b921-2c5049159261"  >
<g style=""  paint-order="stroke"   >
		<g transform="matrix(1 0 0 1 7.10543e-15 0)" id="_x31__00000057123878200727179950000007991276301242154638_"  >
<path style="stroke: none; stroke-width: 1; stroke-dasharray: none; stroke-linecap: butt; stroke-dashoffset: 0; stroke-linejoin: miter; stroke-miterlimit: 4; fill: rgb(92,34,114); fill-rule: nonzero; opacity: 1;"  paint-order="stroke"  transform=" translate(-34.149496461546036, -49.99999406540652)" d="M 60.30846 38.83385 C 60.779509999999995 38.459489999999995 61.28962 38.04774 61.815279999999994 37.60646 L 65.58394999999999 11.081229999999998 C 66.97430999999999 8.825079999999998 68.07488 6.337449999999998 68.28678999999998 3.8010699999999975 C 68.45820999999998 1.7493699999999976 66.80097999999998 -0.000030000000002416982 64.74213999999998 -0.000030000000002416982 L 64.74213999999998 -0.000030000000002416982 C 66.82116999999998 5.122259999999997 63.108869999999975 10.544789999999997 59.976909999999975 14.408169999999998 C 56.057089999999974 19.24355 51.532739999999976 23.55568 46.73430999999998 27.507979999999996 C 41.73678999999998 31.624249999999996 36.44927999999998 35.36998 31.13742999999998 39.06541 C 27.83203999999998 41.36494 24.48940999999998 43.632419999999996 21.235549999999982 46.01485 L 21.162539999999982 46.02357 L 21.16744999999998 46.06476 C 19.24799999999998 47.47181 17.35193999999998 48.90915 15.534239999999981 50.44448 C 6.44009 58.1258 -2.25301 69.85125 0.52679 82.48272 C 3.0468100000000002 93.93386 14.4311 102.04743 26.12832 99.54486 C 34.65951 97.7196 42.59331 87.03078 37.34909 79.42537 C 36.329179999999994 77.94624 34.34343 77.48397 32.76264 78.33786 L 32.76264 78.33786 C 35.220569999999995 80.43756 36.28706 83.19149 35.99781 86.09635 L 33.49927 85.72534 C 33.499210000000005 85.72528 33.49918 85.72523 33.49913 85.72516 C 33.53591 84.28712 32.007110000000004 83.33392 30.68316 83.88043 L 30.14997 84.10052 C 31.90243 88.48024000000001 26.41429 91.80396 22.50327 90.15023000000001 C 16.73753 87.71231 15.44021 80.09823 18.80659 75.22430000000001 C 22.40285 70.01772000000001 28.7622 68.28710000000001 34.627629999999996 67.07349000000002 C 40.797419999999995 65.79692000000001 47.02701999999999 64.71115000000002 52.94669999999999 62.485660000000024 C 55.74522999999999 61.433590000000024 59.94256999999999 59.84267000000003 62.171299999999995 57.192840000000025 C 63.27247 55.883610000000026 62.37114999999999 53.886380000000024 60.66040999999999 53.886380000000024 L 60.66040999999999 53.886380000000024 C 60.42744999999999 56.03439000000002 58.50220999999999 57.47912000000002 56.67439999999999 58.500530000000026 L 59.72777999999999 39.26715000000003 C 59.91915 39.11944 60.11897 38.98442 60.30846 38.83385 z" stroke-linecap="round" />
</g>
		<g transform="matrix(1 0 0 1 -20.17948967215648 -9.453013231548049)" id="_x32__00000096029050814255667330000005388335677190244279_"  >
<path style="stroke: none; stroke-width: 1; stroke-dasharray: none; stroke-linecap: butt; stroke-dashoffset: 0; stroke-linejoin: miter; stroke-miterlimit: 4; fill: rgb(238,41,34); fill-rule: nonzero; opacity: 1;"  paint-order="stroke"  transform=" translate(-13.970006789389553, -40.54698083385847)" d="M 11.05011 33.74619 C 11.09994 33.62946 11.17902 33.6323 11.28269 33.681509999999996 C 11.44109 33.75671 11.59908 33.832809999999995 11.75727 33.90846 C 12.05707 34.051829999999995 12.3573 34.19533 12.64583 34.360589999999995 C 12.90488 34.50897 13.09864 34.75039999999999 13.21127 35.02811 C 13.475990000000001 35.680789999999995 13.74071 36.333479999999994 14.00543 36.98617 C 14.89339 39.1755 15.78558 41.36465 16.677300000000002 43.55024 C 16.96928 44.26587 17.038320000000002 44.96128 16.681610000000003 45.66465 C 16.35488 46.308910000000004 15.782160000000003 46.81049 15.132580000000003 47.11388 C 13.689030000000002 47.788090000000004 12.081550000000004 47.398540000000004 11.542220000000002 46.243770000000005 C 11.002860000000002 45.088950000000004 11.735910000000002 43.606260000000006 13.179450000000003 42.932050000000004 C 13.782720000000003 42.650290000000005 14.410730000000003 42.56418 14.981310000000002 42.63219 C 14.981310000000002 42.63219 11.108110000000002 34.33928 11.107960000000002 34.33894 C 11.03335 34.17923 10.97812 33.91485 11.05011 33.74619 z" stroke-linecap="round" />
</g>
		<g transform="matrix(1 0 0 1 2.6202059105407542 -25.49409568427707)" id="_x33__00000093136807421269547390000007785996466110539950_"  >
<linearGradient id="SVGID_148_10_10_10_10_10_409" gradientUnits="userSpaceOnUse" gradientTransform="matrix(1 0 0 1 32.38102700369476 18.044431434487393)"  x1="0" y1="0" x2="0" y2="13">
<stop offset="0%" style="stop-color:rgb(180,236,81);stop-opacity: 1"/>
<stop offset="100%" style="stop-color:rgb(66,147,33);stop-opacity: 1"/>
</linearGradient>
<path style="stroke: none; stroke-width: 1; stroke-dasharray: none; stroke-linecap: butt; stroke-dashoffset: 0; stroke-linejoin: miter; stroke-miterlimit: 4; fill: url(#SVGID_148_10_10_10_10_10_409); fill-rule: nonzero; opacity: 1;"  paint-order="stroke"  transform=" translate(-36.76970237208678, -24.505898381129448)" d="M 40.2911 18.06645 C 40.40534 18.01115 40.46311 18.06524 40.50896 18.17043 C 40.57902 18.33117 40.64817 18.49232 40.71777 18.65326 C 40.84967 18.95827 40.98182 19.26367 41.09085 19.5778 C 41.188750000000006 19.85983 41.17627 20.16915 41.078810000000004 20.45254 C 40.84975000000001 21.118579999999998 40.62069 21.78462 40.39162 22.45065 C 39.623270000000005 24.68476 38.858230000000006 26.92152 38.09517 29.1553 C 37.84532 29.88671 37.440650000000005 30.45644 36.70969 30.75254 C 36.04016 31.02376 35.27886 31.02583 34.58977 30.82797 C 33.05841 30.38826 32.10211 29.03873 32.45386 27.81373 C 32.80562 26.58866 34.332209999999996 25.95206 35.863569999999996 26.39177 C 36.503539999999994 26.57553 37.03366 26.923070000000003 37.41925 27.3491 C 37.41925 27.3491 39.945299999999996 18.551769999999998 39.9454 18.5514 C 39.99405 18.38198 40.12605 18.14634 40.2911 18.06645 z" stroke-linecap="round" />
</g>
		<g transform="matrix(1 0 0 1 -14.63781631921848 -28.94366766853689)" id="industry-444"  >
<linearGradient id="SVGID_149_11_11_11_11_11_410" gradientUnits="userSpaceOnUse" gradientTransform="matrix(1 0 0 1 11.7454625300877 9.704404647861011)"  x1="0" y1="0" x2="0" y2="23">
<stop offset="0%" style="stop-color:rgb(250,217,97);stop-opacity: 1"/>
<stop offset="100%" style="stop-color:rgb(247,107,28);stop-opacity: 1"/>
</linearGradient>
<path style="stroke: none; stroke-width: 1; stroke-dasharray: none; stroke-linecap: butt; stroke-dashoffset: 0; stroke-linejoin: miter; stroke-miterlimit: 4; fill: url(#SVGID_149_11_11_11_11_11_410); fill-rule: nonzero; opacity: 1;"  paint-order="stroke"  transform=" translate(-19.51168014232755, -21.05632639686963)" d="M 14.5156 25.70409 C 15.23163 25.73932 15.97238 25.56344 16.56225 25.14654 C 17.20627 24.691290000000002 17.47016 24.044240000000002 17.54637 23.275060000000003 C 17.75499 21.169570000000004 17.96873 17.264230000000005 18.18202 14.781830000000003 L 25.43295 20.662530000000004 C 25.299960000000002 23.991520000000005 25.12496 28.370780000000003 25.12496 28.370780000000003 C 24.652250000000002 28.044080000000005 24.05676 27.826740000000004 23.39176 27.793960000000002 C 21.80048 27.715600000000002 20.459560000000003 28.683970000000002 20.396880000000003 29.957030000000003 C 20.334190000000003 31.229960000000002 21.573400000000003 32.325480000000006 23.164670000000005 32.40384 C 23.880770000000005 32.43914 24.621520000000004 32.26326 25.211390000000005 31.846290000000003 C 25.855410000000006 31.391110000000005 26.119300000000006 30.743990000000004 26.195510000000006 29.974880000000002 C 26.395920000000007 27.952420000000004 26.832460000000005 21.79764 26.832460000000005 21.79764 L 27.274490000000004 17.40351 C 27.298510000000004 17.164450000000002 27.194330000000004 16.93046 27.000520000000005 16.78839 C 26.533760000000004 16.44625 26.067000000000004 16.104119999999998 25.600240000000007 15.76198 C 24.555030000000006 14.99583 23.509820000000005 14.22969 22.464610000000008 13.46354 C 21.37185000000001 12.66254 20.279080000000008 11.86154 19.18632000000001 11.06053 C 18.817180000000008 10.78995 18.44804000000001 10.51937 18.07885000000001 10.24874 C 17.873470000000008 10.09816 17.30344000000001 9.4538 17.06092000000001 9.81057 C 16.97108000000001 9.94274 16.95940000000001 10.12369 16.93112000000001 10.27621 C 16.93105000000001 10.27659 16.47582000000001 21.67096 16.47582000000001 21.67096 C 16.00311000000001 21.344260000000002 15.40769000000001 21.12699 14.74262000000001 21.09421 C 13.15134000000001 21.01585 11.810490000000009 21.98422 11.74774000000001 23.25721 C 11.68505 24.5302 12.92425 25.62566 14.5156 25.70409 z" stroke-linecap="round" />
</g>
		<g transform="matrix(1 0 0 1 -3.3618109160135177 8.983628484672415)" id="_x35__00000013176146202603748840000008631973531166909092_"  >
<path style="stroke: none; stroke-width: 1; stroke-dasharray: none; stroke-linecap: butt; stroke-dashoffset: 0; stroke-linejoin: miter; stroke-miterlimit: 4; fill: rgb(194,12,135); fill-rule: nonzero; opacity: 1;"  paint-order="stroke"  transform=" translate(-30.78768554553251, -58.983622550078934)" d="M 5.85293 66.12275 L 11.2081 71.47923999999999 C 11.37611 71.13045999999999 11.56868 70.79392999999999 11.75428 70.45379999999999 L 16.00484 74.70539 C 15.40881 75.60548 14.922740000000001 76.57190999999999 14.569930000000001 77.60423999999999 L 3.55539 72.70443 C 4.03215 70.41033 4.82009 68.21593 5.85293 66.12275 z M 3.02416 78.07697 C 2.9993100000000004 76.65613 3.1153500000000003 75.27246000000001 3.3271200000000003 73.91767 L 14.23802 78.77145 C 14.09882 79.37496 13.99165 79.99276 13.94847 80.63658 C 13.93117 80.89416999999999 13.93557 81.15073 13.93689 81.40737 L 9.46341 81.40737 C 9.43929 81.20711 9.40924 81.00772 9.3904 80.80687 L 3.27515 80.80687 C 3.12986 79.90259 3.04014 78.9907 3.02416 78.07697 z M 5.95182 88.21467 C 5.033259999999999 86.6418 4.30704 84.95451 3.8068199999999996 83.20886 L 9.77085 83.20886 C 9.72276 83.01035 9.69234 82.80862 9.653419999999999 82.60836 L 14.006969999999999 82.60836 C 14.10615 83.46213 14.300109999999998 84.29925 14.586139999999999 85.10419 L 11.048599999999999 86.64736 C 10.961299999999998 86.46674 10.868269999999999 86.28913 10.7861 86.1058 L 5.95182 88.21467 z M 7.29943 90.24847 L 11.91783 88.23373 C 11.80861 88.06381999999999 11.71485 87.88488 11.6137 87.71027 L 15.04825 86.21202 C 15.409049999999999 86.97122 15.85217 87.68674 16.36302 88.34998 L 11.071399999999999 94.17656 C 9.66023 93.04719 8.39099 91.71989 7.29943 90.24847 z M 33.33902 86.91463 L 35.81359 87.28202 C 35.63854 88.06798 35.36812 88.85936000000001 35.00154 89.64620000000001 C 34.676 90.34492 34.26887 91.01565000000001 33.82627 91.66754 L 31.70597 89.66460000000001 C 32.48819 88.87037 33.07109 87.94498 33.33902 86.91463 z M 30.80588 90.46581 L 33.113029999999995 92.64526000000001 C 32.14014999999999 93.86041 30.982839999999996 94.94449 29.689619999999994 95.81086 L 29.077239999999993 94.25581000000001 C 28.985979999999994 94.29789000000001 28.892369999999993 94.33117000000001 28.800369999999994 94.37067 L 27.869559999999993 92.00694 C 28.92953 91.64394 29.94017 91.12459 30.80588 90.46581 z M 24.19202 92.57438 C 24.22288 92.57570000000001 24.252489999999998 92.58171 24.28343 92.58273 C 25.07217 92.60942 25.892879999999998 92.5142 26.70647 92.3327 L 27.67371 94.78895 C 27.57842 94.81893 27.48407 94.85514 27.38849 94.88256 L 28.1106 96.71632 C 27.25178 97.14095999999999 26.35931 97.48571 25.436420000000002 97.69924999999999 C 25.20896 97.75187999999999 24.983110000000003 97.78998999999999 24.75683 97.83251 L 24.77427 95.26080999999999 C 24.573050000000002 95.26623 24.37403 95.25384999999999 24.173840000000002 95.2504 L 24.19202 92.57438 z M 20.58037 91.71028 C 21.342579999999998 92.05033999999999 22.147299999999998 92.30418 22.991899999999998 92.44551 L 22.97328 95.17663999999999 C 22.773239999999998 95.15538 22.57187 95.14285 22.37322 95.11272 L 22.35284 98.10467 C 21.0443 98.15136 19.765900000000002 98.03247 18.527730000000002 97.77289999999999 L 19.972540000000002 94.54124999999999 C 19.782390000000003 94.47725 19.598840000000003 94.39617999999999 19.412060000000004 94.32346999999999 L 20.58037 91.71028 z M 17.14963 89.26972 C 17.848429999999997 90.00429000000001 18.64128 90.641 19.51168 91.15750000000001 L 18.31082 93.84348000000001 C 18.13057 93.75596000000002 17.94753 93.67510000000001 17.77006 93.58142000000001 L 16.19536 97.10357 C 14.72197 96.55981 13.327810000000001 95.81262000000001 12.03481 94.90154000000001 L 17.14963 89.26972 z M 16.83127 73.57894 L 12.47566 69.2223 C 12.67717 68.90109000000001 12.871419999999999 68.57569000000001 13.08847 68.26342000000001 L 7.687049999999999 62.86068000000001 C 9.057229999999999 60.71810000000001 10.66404 58.70035000000001 12.41115 56.80326000000001 L 15.60549 65.16372000000001 C 15.86938 64.88238000000001 16.14236 64.61013000000001 16.4149 64.33759 L 19.07735 71.30602 C 18.25438 71.99889 17.49848 72.75662 16.83127 73.57894 z M 20.3164 70.34274 L 17.59524 63.220670000000005 C 17.69053 63.13542 17.78114 63.044380000000004 17.8776 62.960660000000004 C 18.06218 62.80049 18.255770000000002 62.65220000000001 18.4435 62.496140000000004 L 15.19118 53.9838 C 17.217869999999998 52.065090000000005 19.350479999999997 50.29159 21.47928 48.67584 L 22.75666 59.371300000000005 C 23.219640000000002 59.078010000000006 23.69531 58.803790000000006 24.16753 58.52443 L 25.25843 67.6586 C 23.5435 68.3486 21.85225 69.24451 20.3164 70.34274 z M 33.69366 65.20683 C 31.426460000000002 65.70024 29.187630000000002 66.28672999999999 26.99799 67.03428 L 25.86568 57.553599999999996 C 26.33783 57.293879999999994 26.80726 57.02977 27.28527 56.780319999999996 L 25.93253 45.45357 L 25.845299999999998 45.46398 C 28.899919999999998 43.26979 31.994639999999997 41.13286 35.079679999999996 38.983599999999996 L 33.69366 65.20683 z M 45.4301 48.04866 L 43.63908 63.16834 C 41.05074 63.75528 38.43044 64.2404 35.82217 64.76562 L 37.26522 37.45216 C 40.03476 35.50538 42.77565 33.51966 45.46016 31.45603 L 43.50113 49.02133 C 44.14744 48.70304 44.78767 48.37383 45.4301 48.04866 z M 56.97866 41.26803 L 54.033629999999995 59.81911 C 51.7649 60.84147 49.40313999999999 61.655280000000005 47.00890999999999 62.328430000000004 C 46.71818999999999 62.410160000000005 46.42291999999999 62.47702 46.13080999999999 62.5542 L 48.00795999999999 46.706990000000005 C 48.65514999999999 46.36224000000001 49.30578999999999 46.023360000000004 49.94528999999999 45.665940000000006 L 52.422419999999995 25.742770000000007 C 54.539339999999996 23.86914000000001 56.599529999999994 21.90901000000001 58.55452999999999 19.85263000000001 L 54.93658 42.6424 C 55.62534 42.19664 56.30222 41.7327 56.97866 41.26803 z" stroke-linecap="round" />
</g>
</g>
</g>
</svg>